<?xml version="1.0" standalone="no"?>
<!DOCTYPE svg PUBLIC "-//W3C//DTD SVG 20010904//EN"
 "http://www.w3.org/TR/2001/REC-SVG-20010904/DTD/svg10.dtd">
<svg version="1.0" xmlns="http://www.w3.org/2000/svg"
 width="22.000000pt" height="22.000000pt" viewBox="0 0 22.000000 22.000000"
 preserveAspectRatio="xMidYMid meet">

<g transform="translate(0.000000,22.000000) scale(0.100000,-0.100000)"
fill="#000000" stroke="none">
<path d="M102 178 c-7 -7 -12 -20 -12 -30 0 -10 -4 -18 -10 -18 -5 0 -10 -7
-10 -15 0 -8 5 -15 10 -15 6 0 10 -16 10 -35 0 -24 5 -35 15 -35 10 0 15 11
15 35 0 24 5 35 15 35 8 0 15 6 15 14 0 8 -7 16 -15 20 -8 3 -15 10 -15 16 0
5 7 10 15 10 8 0 15 7 15 15 0 18 -31 20 -48 3z"/>
</g>
</svg>
