<?xml version="1.0" standalone="no"?>
<!DOCTYPE svg PUBLIC "-//W3C//DTD SVG 20010904//EN"
 "http://www.w3.org/TR/2001/REC-SVG-20010904/DTD/svg10.dtd">
<svg version="1.0" xmlns="http://www.w3.org/2000/svg"
 width="22.000000pt" height="22.000000pt" viewBox="0 0 22.000000 22.000000"
 preserveAspectRatio="xMidYMid meet">

<g transform="translate(0.000000,22.000000) scale(0.100000,-0.100000)"
fill="#000000" stroke="none">
<path d="M42 178 c-16 -16 -16 -120 0 -136 16 -16 120 -16 136 0 7 7 12 37 12
68 0 31 -5 61 -12 68 -16 16 -120 16 -136 0z m122 -14 c21 -20 21 -88 0 -108
-20 -21 -88 -21 -108 0 -9 9 -16 32 -16 54 0 22 7 45 16 54 20 21 88 21 108 0z"/>
<path d="M145 150 c3 -5 8 -10 11 -10 2 0 4 5 4 10 0 6 -5 10 -11 10 -5 0 -7
-4 -4 -10z"/>
<path d="M80 135 c-26 -32 13 -81 48 -59 22 14 27 41 12 59 -16 19 -44 19 -60
0z m50 -11 c11 -12 10 -18 -3 -32 -16 -15 -18 -15 -34 0 -13 14 -14 20 -3 32
16 20 24 20 40 0z"/>
</g>
</svg>
