<?xml version="1.0" standalone="no"?>
<!DOCTYPE svg PUBLIC "-//W3C//DTD SVG 20010904//EN"
 "http://www.w3.org/TR/2001/REC-SVG-20010904/DTD/svg10.dtd">
<svg version="1.0" xmlns="http://www.w3.org/2000/svg"
 width="22.000000pt" height="22.000000pt" viewBox="0 0 22.000000 22.000000"
 preserveAspectRatio="xMidYMid meet">

<g transform="translate(0.000000,22.000000) scale(0.100000,-0.100000)"
fill="#000000" stroke="none">
<path d="M74 182 c-23 -15 -35 -51 -24 -72 15 -27 23 -25 16 3 -8 35 14 59 49
55 27 -3 30 -7 30 -38 0 -25 -5 -36 -17 -38 -14 -3 -18 3 -18 27 0 17 -5 31
-10 31 -13 0 -17 -12 -24 -75 -6 -48 -5 -49 10 -28 9 13 27 23 39 23 12 0 28
7 35 16 20 23 16 75 -5 90 -20 15 -63 18 -81 6z"/>
</g>
</svg>
